<?xml version="1.0" encoding="UTF-8"?>
<!DOCTYPE svg PUBLIC "-//W3C//DTD SVG 1.1//EN" "http://www.w3.org/Graphics/SVG/1.1/DTD/svg11.dtd">
<svg xmlns="http://www.w3.org/2000/svg" version="1.1" width="1784px" height="1601px" style="shape-rendering:geometricPrecision; text-rendering:geometricPrecision; image-rendering:optimizeQuality; fill-rule:evenodd; clip-rule:evenodd" xmlns:xlink="http://www.w3.org/1999/xlink">
<g><path style="opacity:1" fill="#013b01" d="M -0.5,-0.5 C 594.167,-0.5 1188.83,-0.5 1783.5,-0.5C 1783.5,533.167 1783.5,1066.83 1783.5,1600.5C 1188.83,1600.5 594.167,1600.5 -0.5,1600.5C -0.5,1066.83 -0.5,533.167 -0.5,-0.5 Z"/></g>
<g><path style="opacity:1" fill="#fdfdfd" d="M 167.5,214.5 C 178.311,212.83 187.978,215.33 196.5,222C 232,257.5 267.5,293 303,328.5C 320.798,346.736 322.131,366.07 307,386.5C 269.167,424.333 231.333,462.167 193.5,500C 178.242,508.804 164.409,506.97 152,494.5C 143.333,481.5 143.333,468.5 152,455.5C 183.833,423.667 215.667,391.833 247.5,360C 214.639,327.472 182.139,294.639 150,261.5C 140.152,239.879 145.985,224.213 167.5,214.5 Z"/></g>
<g><path style="opacity:1" fill="#fcfdfc" d="M 375.5,444.5 C 446.834,444.333 518.167,444.5 589.5,445C 607.833,450.818 615.666,463.318 613,482.5C 608.731,496.105 599.564,503.938 585.5,506C 516.167,506.667 446.833,506.667 377.5,506C 358.686,500.545 350.186,488.045 352,468.5C 356.018,456.65 363.851,448.65 375.5,444.5 Z"/></g>
<g><path style="opacity:1" fill="#fcfdfc" d="M 1589.5,509.5 C 1597.14,509.223 1602.3,512.556 1605,519.5C 1610.46,547.14 1615.79,574.807 1621,602.5C 1624.83,617.311 1619.33,624.145 1604.5,623C 1602.38,621.878 1600.54,620.378 1599,618.5C 1595.51,602.889 1592.18,587.222 1589,571.5C 1505.8,798.09 1422.8,1024.76 1340,1251.5C 1337.26,1260.79 1331.09,1264.29 1321.5,1262C 1317.14,1259.46 1314.64,1255.62 1314,1250.5C 1271.31,1098.18 1228.81,945.85 1186.5,793.5C 1184.88,793.36 1183.71,794.027 1183,795.5C 1145.19,885.248 1107.19,974.915 1069,1064.5C 1065.88,1073.33 1059.71,1076.5 1050.5,1074C 1048.91,1072.95 1047.41,1071.79 1046,1070.5C 1021.58,1030.67 996.917,990.999 972,951.5C 948.617,1009.64 925.617,1067.97 903,1126.5C 902.333,1127.83 902.333,1129.17 903,1130.5C 916.895,1143.09 920.228,1158.09 913,1175.5C 902.57,1192.98 887.403,1199.15 867.5,1194C 848.824,1185.49 840.99,1170.99 844,1150.5C 845.365,1144.77 848.031,1139.77 852,1135.5C 852.667,1134.5 852.667,1133.5 852,1132.5C 806,1044.5 760,956.5 714,868.5C 665.805,966.224 618.138,1064.22 571,1162.5C 573.387,1166.92 576.72,1170.92 581,1174.5C 591.961,1193.91 589.128,1211.07 572.5,1226C 548.935,1238.47 530.435,1233.31 517,1210.5C 514.635,1203 513.968,1195.33 515,1187.5C 516.881,1181.76 519.214,1176.43 522,1171.5C 495.094,1138.68 468.427,1105.68 442,1072.5C 441.163,1070.99 439.996,1070.49 438.5,1071C 353.238,1194.19 267.238,1316.86 180.5,1439C 166.726,1442.89 160.559,1437.73 162,1423.5C 246.5,1302.33 331,1181.17 415.5,1060C 396.534,1040.35 396.867,1021.02 416.5,1002C 434.72,990.748 451.554,992.581 467,1007.5C 475.732,1018.73 477.732,1031.06 473,1044.5C 470.215,1050.2 467.215,1055.54 464,1060.5C 490.667,1093.17 517.333,1125.83 544,1158.5C 592.756,1059.32 641.256,959.987 689.5,860.5C 670.882,842.179 669.882,823.012 686.5,803C 702.55,790.759 718.883,790.425 735.5,802C 751.905,819.114 752.738,836.948 738,855.5C 737.333,856.833 737.333,858.167 738,859.5C 783.758,947.352 829.758,1035.02 876,1122.5C 877.477,1121.56 878.477,1120.22 879,1118.5C 901.223,1061.05 923.723,1003.72 946.5,946.5C 928.946,931.444 925.779,913.778 937,893.5C 951.806,876.831 968.973,873.998 988.5,885C 1003.01,896.877 1007.18,911.711 1001,929.5C 999.46,933.419 997.293,936.919 994.5,940C 1013.96,971.753 1033.79,1003.25 1054,1034.5C 1089.74,950.459 1125.57,866.459 1161.5,782.5C 1145.59,762.158 1147.26,743.325 1166.5,726C 1188.01,714.767 1205.85,718.934 1220,738.5C 1227.91,756.713 1224.74,772.713 1210.5,786.5C 1249.54,927.007 1289.04,1067.34 1329,1207.5C 1408.1,992.197 1486.76,776.864 1565,561.5C 1554.11,571.356 1542.95,580.856 1531.5,590C 1517.97,594.808 1511.47,589.975 1512,575.5C 1514.46,572.035 1517.3,568.869 1520.5,566C 1543.4,546.924 1566.4,528.091 1589.5,509.5 Z"/></g>
</svg>
